<svg xmlns="http://www.w3.org/2000/svg" xmlns:xlink="http://www.w3.org/1999/xlink" width="126" height="126" viewBox="0 0 126 126">
  <defs>
    <clipPath id="clip-path">
      <rect id="長方形_1229" data-name="長方形 1229" width="83.353" height="52.08" fill="none" stroke="#fff" stroke-width="2"/>
    </clipPath>
  </defs>
  <g id="グループ_2555" data-name="グループ 2555" transform="translate(-897 -1701)">
    <circle id="楕円形_12" data-name="楕円形 12" cx="63" cy="63" r="63" transform="translate(897 1701)" fill="#33447d"/>
    <g id="グループ_2093" data-name="グループ 2093" transform="translate(918 1737.96)">
      <g id="グループ_2092" data-name="グループ 2092" transform="translate(0 0)" clip-path="url(#clip-path)">
        <path id="パス_5221" data-name="パス 5221" d="M2.817,30.472a4.7,4.7,0,0,0,4.382,3h5.419A4.748,4.748,0,0,0,7.843,38.09a4.7,4.7,0,0,0,4.7,4.778H24.527a4.748,4.748,0,0,0-4.775,4.618,4.7,4.7,0,0,0,4.7,4.778H58.817a51.534,51.534,0,0,0,13-1.666l10.82-2.871a1.09,1.09,0,0,0,.811-1.054V18.726a1.09,1.09,0,0,0-.893-1.072L69.345,15.216a20.483,20.483,0,0,1-5.454-1.827C57.136,10.007,42.96,3.094,42.96,3.094a5.291,5.291,0,0,0-7.173,2.345,5.348,5.348,0,0,0,2.383,7.091l3.724,1.929a.116.116,0,0,1-.053.219H14.828a4.7,4.7,0,0,0-4.7,4.778A4.748,4.748,0,0,0,14.9,24.076H7.276A4.748,4.748,0,0,0,2.5,28.635a4.691,4.691,0,0,0,.314,1.837" transform="translate(-1.343 -1.342)" fill="none" stroke="#fff" stroke-width="2"/>
        <path id="パス_5222" data-name="パス 5222" d="M2.817,30.472a4.7,4.7,0,0,0,4.382,3h5.419A4.748,4.748,0,0,0,7.843,38.09a4.7,4.7,0,0,0,4.7,4.778H24.527a4.748,4.748,0,0,0-4.775,4.618,4.7,4.7,0,0,0,4.7,4.778H58.817a51.534,51.534,0,0,0,13-1.666l10.82-2.871a1.09,1.09,0,0,0,.811-1.054V18.726a1.09,1.09,0,0,0-.893-1.072L69.345,15.216a20.483,20.483,0,0,1-5.454-1.827C57.136,10.007,42.96,3.094,42.96,3.094a5.291,5.291,0,0,0-7.173,2.345,5.348,5.348,0,0,0,2.383,7.091l3.724,1.929a.116.116,0,0,1-.053.219H14.828a4.7,4.7,0,0,0-4.7,4.778A4.748,4.748,0,0,0,14.9,24.076H7.276A4.748,4.748,0,0,0,2.5,28.635,4.691,4.691,0,0,0,2.817,30.472Z" transform="translate(-1.343 -1.342)" fill="none" stroke="#fff" stroke-linecap="round" stroke-miterlimit="10" stroke-width="2"/>
        <path id="パス_5223" data-name="パス 5223" d="M51.634,38.2H23.875a4.7,4.7,0,0,1,0-9.4H51.467" transform="translate(-10.297 -15.467)" fill="none" stroke="#fff" stroke-linecap="round" stroke-miterlimit="10" stroke-width="2"/>
        <path id="パス_5224" data-name="パス 5224" d="M42.342,58.493H7.4a4.7,4.7,0,1,1,0-9.4H42.787" transform="translate(-1.45 -26.364)" fill="none" stroke="#fff" stroke-linecap="round" stroke-miterlimit="10" stroke-width="2"/>
        <path id="パス_5225" data-name="パス 5225" d="M49,78.787H18.936a4.7,4.7,0,0,1,0-9.4H48.982" transform="translate(-7.645 -37.261)" fill="none" stroke="#fff" stroke-linecap="round" stroke-miterlimit="10" stroke-width="2"/>
        <path id="パス_5226" data-name="パス 5226" d="M62.414,14.622,58.376,12.53a5.347,5.347,0,0,1-2.383-7.091,5.291,5.291,0,0,1,7.173-2.345S77.342,10.006,84.1,13.388a20.468,20.468,0,0,0,5.454,1.827l11.422,2.108a3.272,3.272,0,0,1,2.679,3.218v24.5A3.273,3.273,0,0,1,101.2,48.2L92.02,50.6a51.532,51.532,0,0,1-13,1.666H44.655a4.7,4.7,0,0,1-4.7-4.778,4.749,4.749,0,0,1,4.775-4.618H62.813" transform="translate(-21.455 -1.342)" fill="none" stroke="#fff" stroke-linecap="round" stroke-miterlimit="10" stroke-width="2"/>
        <path id="パス_5227" data-name="パス 5227" d="M133.537,47.533a2.884,2.884,0,1,1-2.884-2.884,2.884,2.884,0,0,1,2.884,2.884" transform="translate(-68.608 -23.975)" fill="none" stroke="#fff" stroke-width="2"/>
        <circle id="楕円形_17" data-name="楕円形 17" cx="2.884" cy="2.884" r="2.884" transform="translate(59.161 20.674)" fill="none" stroke="#fff" stroke-linecap="round" stroke-miterlimit="10" stroke-width="2"/>
        <path id="パス_5228" data-name="パス 5228" d="M153.845,61.609a2.365,2.365,0,1,1-2.365-2.365,2.365,2.365,0,0,1,2.365,2.365" transform="translate(-80.07 -31.812)" fill="none" stroke="#fff" stroke-width="2"/>
        <path id="パス_5229" data-name="パス 5229" d="M153.845,61.609a2.365,2.365,0,1,1-2.365-2.365A2.365,2.365,0,0,1,153.845,61.609Z" transform="translate(-80.07 -31.812)" fill="none" stroke="#fff" stroke-linecap="round" stroke-miterlimit="10" stroke-width="2"/>
        <path id="パス_5232" data-name="パス 5232" d="M144.828,80.608a2.235,2.235,0,1,1-2.235-2.235,2.235,2.235,0,0,1,2.235,2.235" transform="translate(-75.368 -42.084)" fill="none" stroke="#fff" stroke-width="2"/>
        <path id="パス_5233" data-name="パス 5233" d="M144.828,80.608a2.235,2.235,0,1,1-2.235-2.235A2.235,2.235,0,0,1,144.828,80.608Z" transform="translate(-75.368 -42.084)" fill="none" stroke="#fff" stroke-linecap="round" stroke-miterlimit="10" stroke-width="2"/>
      </g>
    </g>
  </g>
</svg>
