<svg xmlns="http://www.w3.org/2000/svg" xmlns:xlink="http://www.w3.org/1999/xlink" width="126" height="126" viewBox="0 0 126 126">
  <defs>
    <clipPath id="clip-path">
      <rect id="長方形_1261" data-name="長方形 1261" width="55.642" height="77.357" fill="#fff"/>
    </clipPath>
  </defs>
  <g id="グループ_2570" data-name="グループ 2570" transform="translate(-10005 -14008)">
    <circle id="楕円形_30" data-name="楕円形 30" cx="63" cy="63" r="63" transform="translate(10005 14008)" fill="#33447d"/>
    <g id="グループ_2136" data-name="グループ 2136" transform="translate(10039.74 14033)">
      <g id="グループ_2135" data-name="グループ 2135" clip-path="url(#clip-path)">
        <path id="パス_5314" data-name="パス 5314" d="M12.557,8.652A85.45,85.45,0,0,1,3.6,8.072,4.048,4.048,0,0,1,4.461.022c2.172.225,5.342.5,8.1.518A71.912,71.912,0,0,0,20.64.06a4.034,4.034,0,0,1,.9,8.017,83.333,83.333,0,0,1-8.979.574M4.04,2.227A1.82,1.82,0,0,0,2.228,4.048a1.82,1.82,0,0,0,1.619,1.81,83.207,83.207,0,0,0,8.71.566,81,81,0,0,0,8.727-.56,1.805,1.805,0,0,0,1.6-1.795,1.807,1.807,0,0,0-2-1.8,74.189,74.189,0,0,1-8.335.493c-2.85-.022-6.1-.3-8.315-.53a1.884,1.884,0,0,0-.193-.01" transform="translate(0 0)" fill="#fff"/>
        <path id="パス_5315" data-name="パス 5315" d="M18.338,65.3,12.39,54.972a14.505,14.505,0,0,1-1.933-7.228V14.71a1.114,1.114,0,1,1,2.228,0V47.744A12.27,12.27,0,0,0,14.32,53.86l4.023,6.982,4.035-6.975a12.267,12.267,0,0,0,1.647-6.135V14.7a1.114,1.114,0,0,1,2.228,0V47.731a14.5,14.5,0,0,1-1.946,7.251Z" transform="translate(-5.798 -7.534)" fill="#fff"/>
        <path id="パス_5316" data-name="パス 5316" d="M26.8,141.014a1.114,1.114,0,0,1-1.114-1.114V124.3a1.114,1.114,0,1,1,2.228,0v15.6a1.114,1.114,0,0,1-1.114,1.114" transform="translate(-14.242 -68.305)" fill="#fff"/>
        <path id="パス_5317" data-name="パス 5317" d="M25.3,64.583H13.069a1.114,1.114,0,0,1,0-2.228H25.3a1.114,1.114,0,0,1,0,2.228" transform="translate(-6.629 -34.575)" fill="#fff"/>
        <path id="パス_5318" data-name="パス 5318" d="M23.822,165.534H19.793a3.113,3.113,0,0,1-3.109-3.109v-.294a3.113,3.113,0,0,1,3.109-3.109h4.029a3.112,3.112,0,0,1,3.109,3.109v.294a3.112,3.112,0,0,1-3.109,3.109m-4.029-4.284a.883.883,0,0,0-.882.882v.294a.883.883,0,0,0,.882.882h4.029a.882.882,0,0,0,.881-.882v-.294a.882.882,0,0,0-.881-.882Z" transform="translate(-9.251 -88.177)" fill="#fff"/>
        <path id="パス_5319" data-name="パス 5319" d="M81.081,8.652a85.449,85.449,0,0,1-8.957-.58,4.048,4.048,0,0,1,.863-8.05c2.172.225,5.342.5,8.1.518A73.576,73.576,0,0,0,89.165.06a4.034,4.034,0,0,1,.9,8.017,83.358,83.358,0,0,1-8.98.574M72.565,2.227a1.82,1.82,0,0,0-1.812,1.821,1.82,1.82,0,0,0,1.619,1.81,83.206,83.206,0,0,0,8.71.566,81.028,81.028,0,0,0,8.727-.56,1.805,1.805,0,0,0,1.6-1.795,1.807,1.807,0,0,0-2-1.8,75.033,75.033,0,0,1-8.335.493c-2.85-.022-6.095-.3-8.315-.53a1.884,1.884,0,0,0-.193-.01" transform="translate(-37.997 0)" fill="#fff"/>
        <path id="パス_5320" data-name="パス 5320" d="M86.863,65.3,80.915,54.972a14.505,14.505,0,0,1-1.933-7.228V14.71a1.114,1.114,0,1,1,2.228,0V47.744a12.27,12.27,0,0,0,1.635,6.116l4.023,6.982L90.9,53.866a12.267,12.267,0,0,0,1.647-6.135V14.7a1.114,1.114,0,1,1,2.228,0V47.731a14.5,14.5,0,0,1-1.946,7.251Z" transform="translate(-43.795 -7.534)" fill="#fff"/>
        <path id="パス_5321" data-name="パス 5321" d="M95.323,141.014a1.114,1.114,0,0,1-1.114-1.114V124.3a1.114,1.114,0,1,1,2.228,0v15.6a1.114,1.114,0,0,1-1.114,1.114" transform="translate(-52.238 -68.305)" fill="#fff"/>
        <path id="パス_5322" data-name="パス 5322" d="M93.826,64.583H81.593a1.114,1.114,0,0,1,0-2.228H93.826a1.114,1.114,0,0,1,0,2.228" transform="translate(-44.625 -34.575)" fill="#fff"/>
        <path id="パス_5323" data-name="パス 5323" d="M92.346,165.534H88.318a3.113,3.113,0,0,1-3.11-3.109v-.294a3.113,3.113,0,0,1,3.11-3.109h4.029a3.112,3.112,0,0,1,3.109,3.109v.294a3.112,3.112,0,0,1-3.109,3.109m-4.029-4.284a.883.883,0,0,0-.882.882v.294a.883.883,0,0,0,.882.882h4.029a.882.882,0,0,0,.881-.882v-.294a.882.882,0,0,0-.881-.882Z" transform="translate(-47.247 -88.177)" fill="#fff"/>
      </g>
    </g>
  </g>
</svg>
