<svg xmlns="http://www.w3.org/2000/svg" width="53" height="41.999" viewBox="0 0 53 41.999">
  <g id="グループ_2382" data-name="グループ 2382" transform="translate(-914 -1770)">
    <g id="交差_18" data-name="交差 18" transform="translate(914 1770)" fill="#33447d">
      <path d="M 50.06614303588867 41.4994010925293 L 0.5000014901161194 41.4994010925293 L 0.5000014901161194 0.500000536441803 L 49.9995002746582 0.500000536441803 C 51.37834167480469 0.500000536441803 52.50010299682617 1.621360540390015 52.50010299682617 2.999700546264648 L 52.50010299682617 38.99970245361328 C 52.50010299682617 39.65692901611328 52.24703216552734 40.27770233154297 51.78750228881836 40.74766159057617 C 51.33001708984375 41.21555328369141 50.71885681152344 41.48238754272461 50.06614303588867 41.4994010925293 Z" stroke="none"/>
      <path d="M 50.05917739868164 40.9994010925293 C 51.13034439086914 40.96809768676758 52.00010299682617 40.07326889038086 52.00010299682617 38.99970245361328 L 52.00010299682617 2.999700546264648 C 52.00010299682617 1.897060513496399 51.10263061523438 1.000000596046448 49.9995002746582 1.000000596046448 L 1.000001549720764 1.000000596046448 L 1.000001549720764 40.9994010925293 L 50.05917739868164 40.9994010925293 M 50.07249069213867 41.9994010925293 L 1.498413098488527e-06 41.9994010925293 L 1.498413098488527e-06 5.462646299747576e-07 L 49.9995002746582 5.462646299747576e-07 C 51.65640258789062 5.462646299747576e-07 53.00010299682617 1.342800498008728 53.00010299682617 2.999700546264648 L 53.00010299682617 38.99970245361328 C 53.00010299682617 40.63222885131836 51.69572067260742 41.96067047119141 50.07249069213867 41.9994010925293 Z" stroke="none" fill="#112b72"/>
    </g>
    <path id="多角形_13" data-name="多角形 13" d="M10.633,1.508a1,1,0,0,1,1.734,0L22.138,18.5a1,1,0,0,1-.867,1.5H1.729a1,1,0,0,1-.867-1.5Z" transform="translate(953 1802) rotate(180)" fill="#fff"/>
  </g>
</svg>
